<svg width="37" height="37" viewBox="0 0 37 37" fill="none" xmlns="http://www.w3.org/2000/svg">
<path d="M18.5 37C28.7173 37 37 28.7173 37 18.5C37 8.28273 28.7173 0 18.5 0C8.28273 0 0 8.28273 0 18.5C0 28.7173 8.28273 37 18.5 37Z" fill="#EEEEEE"/>
<path d="M18 11C20.001 13.1907 21.1382 16.0336 21.2 19C21.1382 21.9664 20.001 24.8093 18 27M18 11C15.999 13.1907 14.8618 16.0336 14.8 19C14.8618 21.9664 15.999 24.8093 18 27M18 11C13.5817 11 10 14.5817 10 19C10 23.4182 13.5817 27 18 27M18 11C22.4182 11 26 14.5817 26 19C26 23.4182 22.4182 27 18 27M10.4 16.6H25.6M10.4 21.4H25.6" stroke="#141414" stroke-width="1.4" stroke-linecap="round" stroke-linejoin="round"/>
</svg>
