<svg width="37" height="37" viewBox="0 0 37 37" fill="none" xmlns="http://www.w3.org/2000/svg">
<path d="M18.5 37C28.7173 37 37 28.7173 37 18.5C37 8.28273 28.7173 0 18.5 0C8.28273 0 0 8.28273 0 18.5C0 28.7173 8.28273 37 18.5 37Z" fill="#EEEEEE"/>
<mask id="mask0_184_1680" style="mask-type:luminance" maskUnits="userSpaceOnUse" x="10" y="10" width="17" height="17">
<path d="M26.8125 10.1875H10.1875V26.8125H26.8125V10.1875Z" fill="white"/>
</mask>
<g mask="url(#mask0_184_1680)">
<path d="M25.5819 10.1875H11.4149C10.7363 10.1875 10.1875 10.7233 10.1875 11.3857V25.6111C10.1875 26.2735 10.7363 26.8125 11.4149 26.8125H25.5819C26.2605 26.8125 26.8125 26.2735 26.8125 25.6143V11.3857C26.8125 10.7233 26.2605 10.1875 25.5819 10.1875ZM15.1198 24.3545H12.652V16.4186H15.1198V24.3545ZM13.8859 15.3374C13.0936 15.3374 12.454 14.6977 12.454 13.9086C12.454 13.1196 13.0936 12.4799 13.8859 12.4799C14.675 12.4799 15.3146 13.1196 15.3146 13.9086C15.3146 14.6944 14.675 15.3374 13.8859 15.3374ZM24.3545 24.3545H21.8899V20.4969C21.8899 19.578 21.8737 18.3928 20.6073 18.3928C19.3248 18.3928 19.1299 19.3962 19.1299 20.432V24.3545H16.6687V16.4186H19.0325V17.5031H19.065C19.3929 16.8797 20.1982 16.2206 21.3964 16.2206C23.8934 16.2206 24.3545 17.8636 24.3545 20.0001V24.3545Z" fill="#141414"/>
</g>
</svg>
