<svg width="20" height="20" viewBox="0 0 20 20" fill="none" xmlns="http://www.w3.org/2000/svg">
<path d="M18.7914 10.6082C19.0355 10.3989 19.1575 10.2943 19.2023 10.1698C19.2415 10.0606 19.2415 9.94099 19.2023 9.83179C19.1575 9.70729 19.0355 9.60259 18.7914 9.39339L10.3206 2.13275C9.9004 1.77255 9.6903 1.59245 9.5124 1.58804C9.3578 1.58421 9.2101 1.65213 9.1124 1.77201C9 1.90994 9 2.18668 9 2.74015V7.03541C6.86532 7.40886 4.91159 8.49049 3.45971 10.1147C1.87682 11.8853 1.00123 14.1767 1 16.5518V17.1637C2.04934 15.8997 3.35951 14.8773 4.84076 14.1667C6.1467 13.5402 7.55842 13.1691 9 13.0713V17.2614C9 17.8149 9 18.0916 9.1124 18.2296C9.2101 18.3494 9.3578 18.4174 9.5124 18.4135C9.6903 18.4091 9.9004 18.229 10.3206 17.8688L18.7914 10.6082Z" stroke="#EEEEEE" stroke-width="1.4" stroke-linecap="round" stroke-linejoin="round"/>
</svg>
